<svg width="24" height="24" viewBox="0 0 24 24" fill="none" xmlns="http://www.w3.org/2000/svg">
<path fill-rule="evenodd" clip-rule="evenodd" d="M12 14.5012C13.105 14.5012 14.0008 13.6054 14.0008 12.5003C14.0008 11.3953 13.105 10.4995 12 10.4995C10.895 10.4995 9.99918 11.3953 9.99918 12.5003C9.99918 13.6054 10.895 14.5012 12 14.5012Z" stroke="white" stroke-width="1.5" stroke-linecap="round" stroke-linejoin="round"/>
<path d="M16.0017 8.49854L13.4146 11.0856" stroke="white" stroke-width="1.5" stroke-linecap="round" stroke-linejoin="round"/>
<path fill-rule="evenodd" clip-rule="evenodd" d="M21.0038 12.5006C21.0042 15.4003 19.602 18.1212 17.2402 19.8036C16.5741 20.2683 15.7794 20.5132 14.9672 20.5039H9.02476C8.23081 20.5154 7.4528 20.2805 6.79784 19.8316C3.54977 17.5409 2.19098 13.3895 3.45602 9.62157C4.72106 5.85369 8.30978 3.36334 12.2821 3.49681C17.1217 3.6999 20.9548 7.65699 21.0038 12.5006V12.5006Z" stroke="white" stroke-width="1.5" stroke-linecap="round" stroke-linejoin="round"/>
</svg>
