<svg width="24" height="24" viewBox="0 0 24 24" fill="none" xmlns="http://www.w3.org/2000/svg">
<path fill-rule="evenodd" clip-rule="evenodd" d="M18.954 21H5.04599C3.94099 21 3.04599 20.105 3.04599 19V11C3.04599 9.895 3.94099 9 5.04599 9H18.954C20.059 9 20.954 9.895 20.954 11V19C20.954 20.105 20.058 21 18.954 21Z" stroke="white" stroke-width="1.5" stroke-linecap="round" stroke-linejoin="round"/>
<path d="M4.78201 9V8C4.78201 6.895 5.67701 6 6.78201 6H17.217C18.322 6 19.217 6.895 19.217 8V9" stroke="white" stroke-width="1.5" stroke-linecap="round" stroke-linejoin="round"/>
<path d="M6.51599 6V5C6.51599 3.895 7.41099 3 8.51599 3H15.485C16.59 3 17.485 3.895 17.485 5V6" stroke="white" stroke-width="1.5" stroke-linecap="round" stroke-linejoin="round"/>
</svg>
