<svg width="24" height="24" viewBox="0 0 24 24" fill="none" xmlns="http://www.w3.org/2000/svg">
<path d="M12.9004 11.0859L5.69736 18.2889" stroke="white" stroke-width="1.5" stroke-linecap="round" stroke-linejoin="round"/>
<path d="M10.1992 11.0859H12.9004V13.7871" stroke="white" stroke-width="1.5" stroke-linecap="round" stroke-linejoin="round"/>
<path d="M8.3985 20.2356C9.50196 20.7178 10.7185 20.9899 12 20.9899C16.9731 20.9899 21.0037 16.9592 21.0037 11.9862C21.0037 7.0131 16.9731 2.98242 12 2.98242C7.02693 2.98242 2.99625 7.0131 2.99625 11.9862C2.99625 13.2807 3.27436 14.5082 3.76657 15.6207" stroke="white" stroke-width="1.5" stroke-linecap="round" stroke-linejoin="round"/>
<path d="M11.0996 17.3085C11.3927 17.3595 11.6929 17.3885 12 17.3885C14.9832 17.3885 17.4022 14.9695 17.4022 11.9862C17.4022 9.00299 14.9832 6.58398 12 6.58398C9.01676 6.58398 6.59775 9.00299 6.59775 11.9862C6.59775 12.2934 6.62676 12.5935 6.67778 12.8866" stroke="white" stroke-width="1.5" stroke-linecap="round" stroke-linejoin="round"/>
</svg>
