<svg width="24" height="24" viewBox="0 0 24 24" fill="none" xmlns="http://www.w3.org/2000/svg">
<path fill-rule="evenodd" clip-rule="evenodd" d="M7.99835 3.99693L9.29889 2.37125C9.48897 2.13415 9.77609 1.99609 10.0802 1.99609H13.9208C14.2249 1.99609 14.5121 2.13415 14.7021 2.37125L16.0017 3.99693V3.99693V4.99734C16.0017 5.54957 15.5535 5.99776 15.0013 5.99776H8.99877C8.44654 5.99776 7.99835 5.54957 7.99835 4.99734V3.99693V3.99693Z" stroke="white" stroke-width="1.5" stroke-linecap="round" stroke-linejoin="round"/>
<path d="M7.99834 3.99707H5.99751C4.89205 3.99707 3.99667 4.89244 3.99667 5.9979V19.0033C3.99667 20.1088 4.89205 21.0042 5.99751 21.0042H18.0025C19.108 21.0042 20.0033 20.1088 20.0033 19.0033V5.9979C20.0033 4.89244 19.108 3.99707 18.0025 3.99707H16.0017" stroke="white" stroke-width="1.5" stroke-linecap="round" stroke-linejoin="round"/>
<path d="M14.0008 12.5005L11.4998 15.0015L9.99918 13.5009" stroke="white" stroke-width="1.5" stroke-linecap="round" stroke-linejoin="round"/>
</svg>
