<svg width="24" height="24" viewBox="0 0 24 24" fill="none" xmlns="http://www.w3.org/2000/svg">
<path d="M13.5917 7.65757C14.471 8.53694 14.471 9.96153 13.5917 10.8409C12.7123 11.7203 11.2877 11.7203 10.4083 10.8409C9.52897 9.96153 9.52897 8.53694 10.4083 7.65757C11.2877 6.77821 12.7123 6.77821 13.5917 7.65757" stroke="white" stroke-width="1.5" stroke-linecap="round" stroke-linejoin="round"/>
<path d="M16.3228 16.5434C16.1017 15.1538 14.9072 14.0894 13.4566 14.0894H10.5434C9.09177 14.0894 7.89828 15.1538 7.67719 16.5434" stroke="white" stroke-width="1.5" stroke-linecap="round" stroke-linejoin="round"/>
<path fill-rule="evenodd" clip-rule="evenodd" d="M17.0021 21.0041H6.99791C4.78799 21.0041 2.99625 19.2123 2.99625 17.0024V6.99825C2.99625 4.78833 4.78799 2.99658 6.99791 2.99658H17.0021C19.212 2.99658 21.0037 4.78833 21.0037 6.99825V17.0024C21.0037 19.2123 19.212 21.0041 17.0021 21.0041Z" stroke="white" stroke-width="1.5" stroke-linecap="round" stroke-linejoin="round"/>
</svg>
