<svg width="70" height="34" viewBox="0 0 70 34" fill="none" xmlns="http://www.w3.org/2000/svg">
<path fill-rule="evenodd" clip-rule="evenodd" d="M50.0647 28.3997H50.6099C50.5008 27.814 50.2828 27.3748 49.883 27.0636C49.4832 26.7525 49.0107 26.6061 48.4292 26.6061C47.6296 26.6061 47.0299 26.8257 46.5756 27.2832C46.0849 27.7774 45.8305 28.5461 45.8305 29.571C45.8305 30.4495 46.0123 31.1266 46.3939 31.6574C46.83 32.243 47.4297 32.5359 48.2475 32.5359C49.5377 32.5359 50.3554 31.8587 50.6644 30.5227H50.1192C50.0102 30.9985 49.8103 31.3646 49.5195 31.6391C49.2106 31.9319 48.829 32.0783 48.3565 32.0783C47.6478 32.0783 47.1208 31.8221 46.7937 31.2913C46.5029 30.8521 46.3757 30.2664 46.3757 29.5527C46.3757 28.8389 46.5393 28.2532 46.83 27.814C47.1753 27.3015 47.6659 27.0636 48.302 27.0636C49.2651 27.0636 49.8648 27.5212 50.0647 28.3997ZM2.48959 29.4795L0.854081 26.7708V26.7525H0.254395L2.25335 29.9736V32.3895H2.78035V29.937L4.79747 26.7708H4.17961L2.48959 29.4795ZM5.72426 31.9502C6.08771 32.3163 6.52384 32.4993 7.05084 32.4993C7.59601 32.5176 8.05032 32.3162 8.39559 31.9136C8.74087 31.5293 8.90442 30.9985 8.90442 30.358C8.90442 29.7357 8.75904 29.2232 8.45011 28.8389C8.12301 28.4363 7.65053 28.2166 7.05084 28.2166C6.45115 28.2166 5.99685 28.4363 5.65157 28.8572C5.34264 29.2415 5.17909 29.7357 5.17909 30.358C5.17909 31.0351 5.36081 31.5659 5.72426 31.9502ZM8.08666 29.15C8.30473 29.4429 8.41376 29.8455 8.41376 30.358C8.41376 30.8338 8.30473 31.2364 8.06849 31.5476C7.83225 31.9136 7.48698 32.0783 7.03267 32.0783C6.59653 32.0783 6.26943 31.9319 6.03319 31.6208C5.79695 31.3097 5.66974 30.8887 5.66974 30.3763C5.66974 29.8821 5.79695 29.4978 5.99684 29.1866C6.25126 28.8389 6.59653 28.6559 7.05084 28.6559C7.50515 28.6559 7.85042 28.8206 8.08666 29.15ZM12.4844 30.541V28.3265H12.9568V32.3895H12.4844V31.8221C12.3026 32.0417 12.1573 32.1881 12.0119 32.2613C11.7756 32.4261 11.5031 32.4993 11.1941 32.4993C10.231 32.4993 9.75851 32.0051 9.75851 30.9985V28.3265H10.231V30.9802C10.231 31.694 10.5763 32.0417 11.2668 32.0417C11.6484 32.0417 11.9392 31.8953 12.1573 31.6208C12.3753 31.3646 12.4844 30.9985 12.4844 30.541ZM14.5742 32.3895V30.3946C14.5742 29.2781 15.0103 28.7291 15.9008 28.7474V28.2349C15.5555 28.2349 15.2829 28.3081 15.083 28.4363C14.8831 28.5644 14.7196 28.8023 14.5923 29.1134H14.5742V28.3448H14.1017V32.3895H14.5742ZM19.408 32.3895H18.8992V26.7708H19.4262V29.1866H22.7154V26.7708H23.2424V32.3895H22.7154V29.6259H19.408V32.3895ZM27.1494 28.3265V30.541C27.1494 30.9985 27.0404 31.3646 26.8223 31.6208C26.5861 31.8953 26.2953 32.0417 25.9137 32.0417C25.2231 32.0417 24.8779 31.694 24.8779 30.9802V28.3265H24.4236V30.9985C24.4236 32.0051 24.8779 32.4993 25.841 32.4993C26.1499 32.4993 26.4407 32.4261 26.6769 32.2613C26.8041 32.1881 26.9677 32.0417 27.1494 31.8221V32.3895H27.6219V28.3265H27.1494ZM29.1484 30.2115V32.3895H28.6941V28.3448H29.1484V28.967H29.1665C29.4209 28.4912 29.8389 28.2532 30.4204 28.2532C30.7657 28.2532 31.0383 28.3265 31.22 28.4912C31.3654 28.6193 31.4926 28.8023 31.5835 29.0402C31.8379 28.5278 32.274 28.2532 32.8919 28.2532C33.3825 28.2532 33.7278 28.418 33.9277 28.7474C34.0731 29.0036 34.1457 29.3697 34.1457 29.8638V32.4261H33.6733V29.6259C33.6733 29.0036 33.3825 28.6925 32.801 28.6925C32.4194 28.6925 32.1286 28.8572 31.8924 29.15C31.7107 29.388 31.6198 29.754 31.6198 30.2481V32.3895H31.1473V29.5893C31.1473 28.967 30.8566 28.6559 30.2932 28.6559C29.9298 28.6559 29.6208 28.8206 29.3846 29.1134C29.2392 29.3514 29.1484 29.7174 29.1484 30.2115ZM37.0715 30.0285L36.4173 30.12C35.4905 30.2481 35.018 30.6508 35.018 31.328C35.018 31.694 35.1634 31.9868 35.4178 32.2064C35.6722 32.4078 35.9812 32.4993 36.3628 32.4993C36.9625 32.4993 37.4531 32.2796 37.8529 31.8221C37.8711 32.06 37.9074 32.2247 37.9983 32.3163C38.0891 32.4078 38.2345 32.4627 38.4526 32.4627C38.5434 32.4627 38.6707 32.4444 38.816 32.3895V32.0234C38.707 32.06 38.6161 32.0783 38.5434 32.0783C38.3981 32.0783 38.3254 31.9502 38.3254 31.694V29.4978C38.3254 28.6559 37.8529 28.2349 36.8716 28.2349C36.3991 28.2349 36.0357 28.3448 35.7449 28.5461C35.4178 28.7657 35.2543 29.1134 35.2179 29.571H35.6904C35.7631 28.967 36.1447 28.6559 36.8534 28.6559C37.5258 28.6559 37.8529 28.9304 37.8529 29.4795C37.8529 29.6991 37.7984 29.8455 37.6893 29.9004C37.5803 29.937 37.3622 29.9919 37.0715 30.0285ZM37.8529 30.2664V30.8887C37.8529 31.2913 37.6893 31.5842 37.4168 31.7855C37.1442 31.9685 36.7989 32.06 36.3991 32.06C36.1629 32.06 35.963 32.0051 35.7994 31.8953C35.6177 31.7672 35.5268 31.5842 35.5268 31.3463C35.5268 30.8338 35.9085 30.541 36.6535 30.4861C37.1987 30.4495 37.5985 30.3763 37.8529 30.2664ZM39.9972 30.2115V32.3895H39.5429V28.3448H39.9972V28.9121C40.4152 28.4546 40.8513 28.2349 41.3056 28.2349C41.8508 28.2349 42.2688 28.418 42.5232 28.8206C42.6686 29.0219 42.7412 29.3331 42.7412 29.754V32.3895H42.2688V29.754C42.2688 29.0219 41.9235 28.6559 41.2329 28.6559C40.9604 28.6559 40.7241 28.7474 40.5061 28.8938C40.3243 29.0402 40.1971 29.2232 40.1063 29.4429C40.0336 29.6259 39.9972 29.9004 39.9972 30.2115ZM52.8087 30.12L53.4629 30.0285C53.7537 29.9919 53.9717 29.937 54.0808 29.9004C54.1898 29.8455 54.2443 29.6991 54.2443 29.4795C54.2443 28.9304 53.899 28.6559 53.2448 28.6559C52.5361 28.6559 52.1363 28.967 52.0818 29.571H51.6093C51.6457 29.1134 51.8092 28.7657 52.1363 28.5461C52.4089 28.3448 52.7905 28.2349 53.263 28.2349C54.2443 28.2349 54.7168 28.6559 54.7168 29.4978V31.694C54.7168 31.9502 54.7895 32.0783 54.9349 32.0783C55.0076 32.0783 55.0984 32.06 55.2074 32.0234V32.3895C55.0439 32.4444 54.9349 32.4627 54.844 32.4627C54.6259 32.4627 54.4806 32.4078 54.3897 32.3163C54.2988 32.2247 54.2625 32.06 54.2443 31.8221C53.8627 32.2796 53.3539 32.4993 52.7542 32.4993C52.3726 32.4993 52.0636 32.4078 51.8092 32.2064C51.5366 31.9868 51.4094 31.694 51.4094 31.328C51.4094 30.6508 51.8819 30.2481 52.8087 30.12ZM54.2443 30.8887V30.2664C53.9717 30.3763 53.5719 30.4495 53.0449 30.4861C52.2999 30.541 51.9183 30.8338 51.9183 31.3463C51.9183 31.5842 52.0091 31.7672 52.1908 31.8953C52.3544 32.0051 52.5543 32.06 52.7724 32.06C53.1903 32.06 53.5174 31.9685 53.79 31.7855C54.0989 31.5842 54.2443 31.2913 54.2443 30.8887ZM56.4613 34V31.7489C56.5885 31.9868 56.8066 32.1698 57.0792 32.3163C57.3336 32.4444 57.6062 32.5176 57.8969 32.5176C58.4785 32.5176 58.9328 32.3162 59.2599 31.877C59.5506 31.4744 59.696 30.9802 59.696 30.3763C59.696 29.7174 59.5506 29.2232 59.278 28.8572C58.9509 28.4546 58.4966 28.2349 57.8788 28.2349C57.6062 28.2349 57.3336 28.3082 57.0792 28.4546C56.8066 28.601 56.6067 28.8023 56.4795 29.0585H56.4613V28.3448H55.9889V34H56.4613ZM56.8248 31.5659C56.5704 31.2364 56.4613 30.8521 56.4613 30.3763C56.4613 29.8821 56.5704 29.4795 56.8066 29.15C57.061 28.8206 57.4063 28.6559 57.8243 28.6559C58.2241 28.6559 58.5512 28.784 58.8056 29.0768C59.0418 29.3697 59.1872 29.754 59.1872 30.2481C59.2054 30.7789 59.0963 31.1998 58.8783 31.5293C58.642 31.9136 58.2786 32.0783 57.8243 32.0783C57.4245 32.0783 57.0792 31.9136 56.8248 31.5659ZM61.2407 27.4663H60.7318V26.7708H61.2407V27.4663ZM61.2043 32.3895H60.75V28.3448H61.2043V32.3895ZM63.8211 32.4078V32.0234C63.6757 32.06 63.5485 32.0783 63.4213 32.0783C63.2578 32.0783 63.1306 32.0417 63.0761 31.9502C63.0397 31.877 63.0215 31.7306 63.0215 31.511V28.7291H63.7848V28.3448H63.0215V27.2283H62.5491V28.3448H61.9857V28.7291H62.5491V31.694C62.5491 32.2247 62.8035 32.4993 63.276 32.4993C63.3391 32.4993 63.4844 32.4717 63.712 32.4284L63.7121 32.4284L63.8211 32.4078ZM65.7656 30.12L66.4016 30.0285C66.7105 29.9919 66.9104 29.937 67.0194 29.9004C67.1285 29.8455 67.183 29.6991 67.183 29.4795C67.183 28.9304 66.8559 28.6559 66.1835 28.6559C65.4748 28.6559 65.0932 28.967 65.0023 29.571H64.5298C64.5662 29.1134 64.7297 28.7657 65.0568 28.5461C65.3294 28.3448 65.711 28.2349 66.1835 28.2349C67.1648 28.2349 67.6373 28.6559 67.6373 29.4978V31.694C67.6373 31.9502 67.71 32.0783 67.8554 32.0783C67.9281 32.0783 68.0189 32.06 68.1461 32.0234V32.3895C67.9826 32.4444 67.8735 32.4627 67.7827 32.4627C67.5646 32.4627 67.4192 32.4078 67.3284 32.3163C67.2375 32.2247 67.2012 32.06 67.183 31.8221C66.7832 32.2796 66.2925 32.4993 65.6747 32.4993C65.3112 32.4993 64.9841 32.4078 64.7479 32.2064C64.4753 31.9868 64.3481 31.694 64.3481 31.328C64.3663 30.6508 64.8206 30.2481 65.7656 30.12ZM67.183 30.8887V30.2664C66.9286 30.3763 66.5288 30.4495 65.9836 30.4861C65.2386 30.541 64.8569 30.8338 64.8569 31.3463C64.8569 31.5842 64.9478 31.7672 65.1295 31.8953C65.2931 32.0051 65.493 32.06 65.7292 32.06C66.129 32.06 66.4743 31.9685 66.7287 31.7855C67.0376 31.5842 67.183 31.2913 67.183 30.8887ZM68.9457 32.3895H69.4182V26.7708H68.9457V32.3895Z" fill="#58595B"/>
<path fill-rule="evenodd" clip-rule="evenodd" d="M19.9168 13.3738V20.3102C19.9168 23.7144 23.315 23.33 23.315 23.33V13.264C23.315 10.9031 22.6426 8.9631 21.2979 7.49896C20.0622 6.16292 18.0814 5.35764 15.9916 5.35764C15.5554 5.35764 14.7195 5.37595 14.2289 5.46746C12.557 5.81519 11.3576 6.49236 10.34 7.60877V2.96011C10.34 -0.370827 6.92359 0.0135119 6.92359 0.0135119V20.1272C6.92359 23.8974 10.34 23.33 10.34 23.33V13.6301C10.34 8.28594 15.083 8.28594 15.4282 8.28594C16.4459 8.26763 19.9168 8.56046 19.9168 13.3738ZM28.2397 21.7012C29.8389 22.964 31.7651 23.6046 33.9458 23.6046L34.182 23.5863C35.8902 23.568 37.4894 23.0921 38.925 22.2136C40.3606 21.3351 41.5055 20.1455 42.3778 18.6631L42.7775 17.9676C42.7775 17.9676 40.4333 16.4851 38.4162 18.4434C37.1441 19.6697 35.6903 20.3285 34.0367 20.3285C32.4193 20.3285 30.9655 19.7429 29.9479 18.6997C28.8939 17.6016 28.3669 16.2106 28.3669 14.5635C28.3669 14.1791 28.3851 13.8131 28.4396 13.4287C28.6395 12.1659 29.1483 11.1044 29.9479 10.2442C30.693 9.43895 31.8196 8.83499 33.0554 8.59707C33.4188 8.52386 33.8004 8.50556 34.2366 8.50556H34.3274C35.8176 8.50556 37.126 8.98141 38.1073 10.0063C40.0154 12.0195 42.4323 10.3906 42.4323 10.3906L42.0325 9.67688C41.2874 8.32254 40.1971 7.24273 38.7796 6.43745C37.3804 5.65048 35.8721 5.26614 34.2911 5.26614C33.6187 5.26614 32.9282 5.33934 32.2558 5.46746C30.0388 5.9433 28.2397 7.04141 26.895 8.76178C25.5502 10.4822 24.896 12.5137 24.9687 14.7831C24.9869 15.4419 25.0414 16.0276 25.1322 16.5401C25.532 18.6448 26.586 20.3834 28.2397 21.7012ZM66.5288 20.3651V12.5503C66.5288 10.1161 65.5293 8.81669 63.385 8.41405C63.1669 8.37745 62.9488 8.35914 62.7126 8.35914H62.6217C62.4036 8.35914 62.1674 8.37745 61.9675 8.41405C59.8777 8.79839 58.9509 10.0246 58.8964 12.4038V23.3117C58.8964 23.3117 55.4073 23.6595 55.4073 20.3834V12.4038C55.371 10.0612 54.3897 8.79839 52.3362 8.41405C52.1181 8.37745 51.9 8.35914 51.6638 8.35914H51.5729C51.3549 8.35914 51.1368 8.37745 50.9187 8.41405C48.7744 8.79839 47.7749 10.1161 47.7749 12.5503V23.33C47.7749 23.33 44.304 23.7327 44.304 20.3651V12.1476C44.304 10.2808 44.831 8.70688 45.8487 7.49896C46.8663 6.29104 48.3201 5.54066 50.1373 5.28444C50.3554 5.24783 51.0641 5.19293 51.6638 5.19293C52.318 5.19293 52.9359 5.26613 52.9904 5.28444C54.7349 5.52236 56.1342 6.21783 57.1337 7.31594C58.1513 6.19953 59.5324 5.50406 61.2588 5.28444C61.4587 5.24783 62.0765 5.19293 62.6762 5.19293C63.2577 5.19293 63.9846 5.24783 64.1664 5.28444C66.0018 5.54066 67.4556 6.27274 68.4732 7.49896C69.4909 8.70688 69.9997 10.2808 69.9997 12.1476V23.33C70.036 23.33 66.5288 23.5863 66.5288 20.3651ZM3.76161 5.57727C3.76161 5.57727 3.77978 16.7414 3.77978 20.2553C3.77978 23.7693 0.345215 23.3117 0.345215 23.3117V8.98141C0.345215 5.15632 3.76161 5.57727 3.76161 5.57727Z" fill="#0072BC"/>
<path d="M0 2.17315C0 3.32616 0.926788 4.24125 2.05347 4.24125C3.19833 4.24125 4.12511 3.32616 4.12511 2.17315C4.12511 1.02013 3.19833 0.105042 2.05347 0.105042C0.926788 0.105042 0 1.02013 0 2.17315Z" fill="#F7941D"/>
</svg>
