<svg width="24" height="24" viewBox="0 0 24 24" fill="none" xmlns="http://www.w3.org/2000/svg">
<path d="M10.5 4.47644C10.5 4.87427 10.658 5.2558 10.9393 5.5371C11.2206 5.81841 11.6022 5.97644 12 5.97644C12.3978 5.97644 12.7794 5.81841 13.0607 5.5371C13.342 5.2558 13.5 4.87427 13.5 4.47644C13.5 4.07862 13.342 3.69708 13.0607 3.41578C12.7794 3.13448 12.3978 2.97644 12 2.97644C11.6022 2.97644 11.2206 3.13448 10.9393 3.41578C10.658 3.69708 10.5 4.07862 10.5 4.47644ZM10.5 11.9764C10.5 12.3743 10.658 12.7558 10.9393 13.0371C11.2206 13.3184 11.6022 13.4764 12 13.4764C12.3978 13.4764 12.7794 13.3184 13.0607 13.0371C13.342 12.7558 13.5 12.3743 13.5 11.9764C13.5 11.5786 13.342 11.1971 13.0607 10.9158C12.7794 10.6345 12.3978 10.4764 12 10.4764C11.6022 10.4764 11.2206 10.6345 10.9393 10.9158C10.658 11.1971 10.5 11.5786 10.5 11.9764ZM10.5 19.4764C10.5 19.8743 10.658 20.2558 10.9393 20.5371C11.2206 20.8184 11.6022 20.9764 12 20.9764C12.3978 20.9764 12.7794 20.8184 13.0607 20.5371C13.342 20.2558 13.5 19.8743 13.5 19.4764C13.5 19.0786 13.342 18.6971 13.0607 18.4158C12.7794 18.1345 12.3978 17.9764 12 17.9764C11.6022 17.9764 11.2206 18.1345 10.9393 18.4158C10.658 18.6971 10.5 19.0786 10.5 19.4764Z" fill="black" fill-opacity="0.65"/>
</svg>
