<svg width="250" height="278" viewBox="0 0 250 278" fill="none" xmlns="http://www.w3.org/2000/svg">
<path d="M6.93555 270.214L10.1875 260.203H12.6309L8.02539 273H5.87207L1.28418 260.203H3.71875L6.93555 270.214ZM19.3896 272.068C18.7627 272.807 17.8721 273.176 16.7178 273.176C15.6865 273.176 14.9043 272.874 14.3711 272.271C13.8438 271.667 13.5801 270.794 13.5801 269.651V263.49H15.7158V269.625C15.7158 270.832 16.2168 271.436 17.2188 271.436C18.2559 271.436 18.9561 271.063 19.3193 270.319V263.49H21.4551V273H19.4424L19.3896 272.068ZM25.9023 273H23.7666V263.49H25.9023V273ZM23.6348 261.021C23.6348 260.692 23.7373 260.42 23.9424 260.203C24.1533 259.986 24.4521 259.878 24.8389 259.878C25.2256 259.878 25.5244 259.986 25.7354 260.203C25.9463 260.42 26.0518 260.692 26.0518 261.021C26.0518 261.343 25.9463 261.612 25.7354 261.829C25.5244 262.04 25.2256 262.146 24.8389 262.146C24.4521 262.146 24.1533 262.04 23.9424 261.829C23.7373 261.612 23.6348 261.343 23.6348 261.021ZM34.9902 273H32.8545V259.5H34.9902V273ZM36.9238 268.157C36.9238 267.226 37.1084 266.388 37.4775 265.644C37.8467 264.894 38.3652 264.319 39.0332 263.921C39.7012 263.517 40.4688 263.314 41.3359 263.314C42.6191 263.314 43.6592 263.728 44.4561 264.554C45.2588 265.38 45.6924 266.476 45.7568 267.841L45.7656 268.342C45.7656 269.279 45.584 270.117 45.2207 270.855C44.8633 271.594 44.3477 272.165 43.6738 272.569C43.0059 272.974 42.2324 273.176 41.3535 273.176C40.0117 273.176 38.9365 272.73 38.1279 271.84C37.3252 270.943 36.9238 269.751 36.9238 268.263V268.157ZM39.0596 268.342C39.0596 269.32 39.2617 270.088 39.666 270.645C40.0703 271.195 40.6328 271.471 41.3535 271.471C42.0742 271.471 42.6338 271.189 43.0322 270.627C43.4365 270.064 43.6387 269.241 43.6387 268.157C43.6387 267.196 43.4307 266.435 43.0146 265.872C42.6045 265.31 42.0449 265.028 41.3359 265.028C40.6387 265.028 40.085 265.307 39.6748 265.863C39.2646 266.414 39.0596 267.24 39.0596 268.342ZM42.4082 262.163H40.6328L38.2598 259.5H40.6943L42.4082 262.163ZM49.5537 263.49L49.6152 264.589C50.3184 263.739 51.2412 263.314 52.3838 263.314C54.3643 263.314 55.3721 264.448 55.4072 266.716V273H53.2715V266.839C53.2715 266.235 53.1396 265.79 52.876 265.503C52.6182 265.21 52.1934 265.063 51.6016 265.063C50.7402 265.063 50.0986 265.453 49.6768 266.232V273H47.541V263.49H49.5537ZM57.2178 268.175C57.2178 266.698 57.5635 265.521 58.2549 264.642C58.9521 263.757 59.875 263.314 61.0234 263.314C62.1074 263.314 62.96 263.692 63.5811 264.448L63.6777 263.49H65.6025V272.71C65.6025 273.958 65.2129 274.942 64.4336 275.663C63.6602 276.384 62.6143 276.744 61.2959 276.744C60.5986 276.744 59.916 276.598 59.248 276.305C58.5859 276.018 58.082 275.64 57.7363 275.171L58.7471 273.888C59.4033 274.667 60.2119 275.057 61.1729 275.057C61.8818 275.057 62.4414 274.863 62.8516 274.477C63.2617 274.096 63.4668 273.533 63.4668 272.789V272.147C62.8516 272.833 62.0312 273.176 61.0059 273.176C59.8926 273.176 58.9814 272.733 58.2725 271.849C57.5693 270.964 57.2178 269.739 57.2178 268.175ZM59.3447 268.359C59.3447 269.314 59.5381 270.067 59.9248 270.618C60.3174 271.163 60.8594 271.436 61.5508 271.436C62.4121 271.436 63.0508 271.066 63.4668 270.328V266.145C63.0625 265.424 62.4297 265.063 61.5684 265.063C60.8652 265.063 60.3174 265.342 59.9248 265.898C59.5381 266.455 59.3447 267.275 59.3447 268.359ZM76.1934 271.471C76.7266 271.471 77.1689 271.315 77.5205 271.005C77.8721 270.694 78.0596 270.311 78.083 269.854H80.0957C80.0723 270.445 79.8877 270.999 79.542 271.515C79.1963 272.024 78.7275 272.429 78.1357 272.728C77.5439 273.026 76.9053 273.176 76.2197 273.176C74.8896 273.176 73.835 272.745 73.0557 271.884C72.2764 271.022 71.8867 269.833 71.8867 268.315V268.096C71.8867 266.648 72.2734 265.491 73.0469 264.624C73.8203 263.751 74.875 263.314 76.2109 263.314C77.3418 263.314 78.2617 263.646 78.9707 264.308C79.6855 264.964 80.0605 265.828 80.0957 266.9H78.083C78.0596 266.355 77.8721 265.907 77.5205 265.556C77.1748 265.204 76.7324 265.028 76.1934 265.028C75.502 265.028 74.9688 265.28 74.5938 265.784C74.2188 266.282 74.0283 267.041 74.0225 268.061V268.403C74.0225 269.435 74.207 270.205 74.5762 270.715C74.9512 271.219 75.4902 271.471 76.1934 271.471ZM83.8135 264.527C84.5107 263.719 85.3926 263.314 86.459 263.314C88.4863 263.314 89.5146 264.472 89.5439 266.786V273H87.4082V266.865C87.4082 266.209 87.2646 265.746 86.9775 265.477C86.6963 265.201 86.2803 265.063 85.7295 265.063C84.874 265.063 84.2354 265.444 83.8135 266.206V273H81.6777V259.5H83.8135V264.527ZM91.3105 268.157C91.3105 267.226 91.4951 266.388 91.8643 265.644C92.2334 264.894 92.752 264.319 93.4199 263.921C94.0879 263.517 94.8555 263.314 95.7227 263.314C97.0059 263.314 98.0459 263.728 98.8428 264.554C99.6455 265.38 100.079 266.476 100.144 267.841L100.152 268.342C100.152 269.279 99.9707 270.117 99.6074 270.855C99.25 271.594 98.7344 272.165 98.0605 272.569C97.3926 272.974 96.6191 273.176 95.7402 273.176C94.3984 273.176 93.3232 272.73 92.5146 271.84C91.7119 270.943 91.3105 269.751 91.3105 268.263V268.157ZM93.4463 268.342C93.4463 269.32 93.6484 270.088 94.0527 270.645C94.457 271.195 95.0195 271.471 95.7402 271.471C96.4609 271.471 97.0205 271.189 97.4189 270.627C97.8232 270.064 98.0254 269.241 98.0254 268.157C98.0254 267.196 97.8174 266.435 97.4014 265.872C96.9912 265.31 96.4316 265.028 95.7227 265.028C95.0254 265.028 94.4717 265.307 94.0615 265.863C93.6514 266.414 93.4463 267.24 93.4463 268.342ZM94.4922 275.136C94.4922 274.825 94.5947 274.564 94.7998 274.354C95.0107 274.148 95.3096 274.046 95.6963 274.046C96.083 274.046 96.3818 274.148 96.5928 274.354C96.8037 274.564 96.9092 274.825 96.9092 275.136C96.9092 275.446 96.8037 275.704 96.5928 275.909C96.3818 276.114 96.083 276.217 95.6963 276.217C95.3096 276.217 95.0107 276.114 94.7998 275.909C94.5947 275.704 94.4922 275.446 94.4922 275.136ZM103.94 263.49L104.002 264.589C104.705 263.739 105.628 263.314 106.771 263.314C108.751 263.314 109.759 264.448 109.794 266.716V273H107.658V266.839C107.658 266.235 107.526 265.79 107.263 265.503C107.005 265.21 106.58 265.063 105.988 265.063C105.127 265.063 104.485 265.453 104.063 266.232V273H101.928V263.49H103.94ZM119.813 270.293L121.826 263.49H124.032L120.736 273H118.882L115.56 263.49H117.774L119.813 270.293ZM130.914 273C130.82 272.818 130.738 272.522 130.668 272.112C129.988 272.821 129.156 273.176 128.172 273.176C127.217 273.176 126.438 272.903 125.834 272.358C125.23 271.813 124.929 271.14 124.929 270.337C124.929 269.323 125.304 268.547 126.054 268.008C126.81 267.463 127.888 267.19 129.288 267.19H130.598V266.566C130.598 266.074 130.46 265.682 130.185 265.389C129.909 265.09 129.49 264.94 128.928 264.94C128.441 264.94 128.043 265.063 127.732 265.31C127.422 265.55 127.267 265.857 127.267 266.232H125.131C125.131 265.711 125.304 265.225 125.649 264.773C125.995 264.316 126.464 263.959 127.056 263.701C127.653 263.443 128.318 263.314 129.051 263.314C130.164 263.314 131.052 263.596 131.714 264.158C132.376 264.715 132.716 265.5 132.733 266.514V270.803C132.733 271.658 132.854 272.341 133.094 272.851V273H130.914ZM128.567 271.462C128.989 271.462 129.385 271.359 129.754 271.154C130.129 270.949 130.41 270.674 130.598 270.328V268.535H129.446C128.655 268.535 128.061 268.673 127.662 268.948C127.264 269.224 127.064 269.613 127.064 270.117C127.064 270.527 127.199 270.855 127.469 271.102C127.744 271.342 128.11 271.462 128.567 271.462ZM130.237 262.163H128.462L126.089 259.5H128.523L130.237 262.163ZM134.57 268.157C134.57 267.226 134.755 266.388 135.124 265.644C135.493 264.894 136.012 264.319 136.68 263.921C137.348 263.517 138.115 263.314 138.982 263.314C140.266 263.314 141.306 263.728 142.103 264.554C142.905 265.38 143.339 266.476 143.403 267.841L143.412 268.342C143.412 269.279 143.23 270.117 142.867 270.855C142.51 271.594 141.994 272.165 141.32 272.569C140.652 272.974 139.879 273.176 139 273.176C137.658 273.176 136.583 272.73 135.774 271.84C134.972 270.943 134.57 269.751 134.57 268.263V268.157ZM136.706 268.342C136.706 269.32 136.908 270.088 137.312 270.645C137.717 271.195 138.279 271.471 139 271.471C139.721 271.471 140.28 271.189 140.679 270.627C141.083 270.064 141.285 269.241 141.285 268.157C141.285 267.196 141.077 266.435 140.661 265.872C140.251 265.31 139.691 265.028 138.982 265.028C138.285 265.028 137.731 265.307 137.321 265.863C136.911 266.414 136.706 267.24 136.706 268.342ZM151.709 263.49L151.771 264.483C152.438 263.704 153.353 263.314 154.513 263.314C155.784 263.314 156.654 263.801 157.123 264.773C157.814 263.801 158.787 263.314 160.041 263.314C161.09 263.314 161.869 263.604 162.379 264.185C162.895 264.765 163.158 265.62 163.17 266.751V273H161.034V266.812C161.034 266.209 160.902 265.767 160.639 265.485C160.375 265.204 159.938 265.063 159.329 265.063C158.843 265.063 158.444 265.195 158.134 265.459C157.829 265.717 157.615 266.057 157.492 266.479L157.501 273H155.365V266.742C155.336 265.623 154.765 265.063 153.651 265.063C152.796 265.063 152.189 265.412 151.832 266.109V273H149.696V263.49H151.709ZM164.963 268.157C164.963 267.226 165.147 266.388 165.517 265.644C165.886 264.894 166.404 264.319 167.072 263.921C167.74 263.517 168.508 263.314 169.375 263.314C170.658 263.314 171.698 263.728 172.495 264.554C173.298 265.38 173.731 266.476 173.796 267.841L173.805 268.342C173.805 269.279 173.623 270.117 173.26 270.855C172.902 271.594 172.387 272.165 171.713 272.569C171.045 272.974 170.271 273.176 169.393 273.176C168.051 273.176 166.976 272.73 166.167 271.84C165.364 270.943 164.963 269.751 164.963 268.263V268.157ZM167.099 268.342C167.099 269.32 167.301 270.088 167.705 270.645C168.109 271.195 168.672 271.471 169.393 271.471C170.113 271.471 170.673 271.189 171.071 270.627C171.476 270.064 171.678 269.241 171.678 268.157C171.678 267.196 171.47 266.435 171.054 265.872C170.644 265.31 170.084 265.028 169.375 265.028C168.678 265.028 168.124 265.307 167.714 265.863C167.304 266.414 167.099 267.24 167.099 268.342ZM172.363 261.935V262.031H170.649L169.331 260.66L168.021 262.031H166.325V261.917L168.707 259.491H169.964L172.363 261.935ZM168.145 275.136C168.145 274.825 168.247 274.564 168.452 274.354C168.663 274.148 168.962 274.046 169.349 274.046C169.735 274.046 170.034 274.148 170.245 274.354C170.456 274.564 170.562 274.825 170.562 275.136C170.562 275.446 170.456 275.704 170.245 275.909C170.034 276.114 169.735 276.217 169.349 276.217C168.962 276.217 168.663 276.114 168.452 275.909C168.247 275.704 168.145 275.446 168.145 275.136ZM178.287 261.179V263.49H179.966V265.072H178.287V270.381C178.287 270.744 178.357 271.008 178.498 271.172C178.645 271.33 178.902 271.409 179.271 271.409C179.518 271.409 179.767 271.38 180.019 271.321V272.974C179.532 273.108 179.063 273.176 178.612 273.176C176.972 273.176 176.151 272.271 176.151 270.46V265.072H174.587V263.49H176.151V261.179H178.287ZM188.764 261.179V263.49H190.442V265.072H188.764V270.381C188.764 270.744 188.834 271.008 188.975 271.172C189.121 271.33 189.379 271.409 189.748 271.409C189.994 271.409 190.243 271.38 190.495 271.321V272.974C190.009 273.108 189.54 273.176 189.089 273.176C187.448 273.176 186.628 272.271 186.628 270.46V265.072H185.063V263.49H186.628V261.179H188.764ZM194.354 273H192.218V263.49H194.354V273ZM192.086 261.021C192.086 260.692 192.188 260.42 192.394 260.203C192.604 259.986 192.903 259.878 193.29 259.878C193.677 259.878 193.976 259.986 194.187 260.203C194.397 260.42 194.503 260.692 194.503 261.021C194.503 261.343 194.397 261.612 194.187 261.829C193.976 262.04 193.677 262.146 193.29 262.146C192.903 262.146 192.604 262.04 192.394 261.829C192.188 261.612 192.086 261.343 192.086 261.021ZM198.669 263.49L198.73 264.589C199.434 263.739 200.356 263.314 201.499 263.314C203.479 263.314 204.487 264.448 204.522 266.716V273H202.387V266.839C202.387 266.235 202.255 265.79 201.991 265.503C201.733 265.21 201.309 265.063 200.717 265.063C199.855 265.063 199.214 265.453 198.792 266.232V273H196.656V263.49H198.669ZM213.171 263.49L213.232 264.589C213.936 263.739 214.858 263.314 216.001 263.314C217.981 263.314 218.989 264.448 219.024 266.716V273H216.889V266.839C216.889 266.235 216.757 265.79 216.493 265.503C216.235 265.21 215.811 265.063 215.219 265.063C214.357 265.063 213.716 265.453 213.294 266.232V273H211.158V263.49H213.171ZM223.313 264.527C224.011 263.719 224.893 263.314 225.959 263.314C227.986 263.314 229.015 264.472 229.044 266.786V273H226.908V266.865C226.908 266.209 226.765 265.746 226.478 265.477C226.196 265.201 225.78 265.063 225.229 265.063C224.374 265.063 223.735 265.444 223.313 266.206V273H221.178V259.5H223.313V264.527ZM236.893 273C236.799 272.818 236.717 272.522 236.646 272.112C235.967 272.821 235.135 273.176 234.15 273.176C233.195 273.176 232.416 272.903 231.812 272.358C231.209 271.813 230.907 271.14 230.907 270.337C230.907 269.323 231.282 268.547 232.032 268.008C232.788 267.463 233.866 267.19 235.267 267.19H236.576V266.566C236.576 266.074 236.438 265.682 236.163 265.389C235.888 265.09 235.469 264.94 234.906 264.94C234.42 264.94 234.021 265.063 233.711 265.31C233.4 265.55 233.245 265.857 233.245 266.232H231.109C231.109 265.711 231.282 265.225 231.628 264.773C231.974 264.316 232.442 263.959 233.034 263.701C233.632 263.443 234.297 263.314 235.029 263.314C236.143 263.314 237.03 263.596 237.692 264.158C238.354 264.715 238.694 265.5 238.712 266.514V270.803C238.712 271.658 238.832 272.341 239.072 272.851V273H236.893ZM234.546 271.462C234.968 271.462 235.363 271.359 235.732 271.154C236.107 270.949 236.389 270.674 236.576 270.328V268.535H235.425C234.634 268.535 234.039 268.673 233.641 268.948C233.242 269.224 233.043 269.613 233.043 270.117C233.043 270.527 233.178 270.855 233.447 271.102C233.723 271.342 234.089 271.462 234.546 271.462ZM237.93 260.247C237.93 260.815 237.672 261.281 237.156 261.645C236.646 262.008 235.952 262.189 235.073 262.189C234.2 262.189 233.503 262.011 232.981 261.653C232.466 261.296 232.208 260.827 232.208 260.247H233.764C233.764 260.552 233.875 260.792 234.098 260.968C234.32 261.144 234.646 261.231 235.073 261.231C235.489 261.231 235.809 261.144 236.031 260.968C236.254 260.792 236.365 260.552 236.365 260.247H237.93ZM235.478 258.437H237.077L235.592 260.124H234.467L235.478 258.437ZM242.931 263.49L242.992 264.589C243.695 263.739 244.618 263.314 245.761 263.314C247.741 263.314 248.749 264.448 248.784 266.716V273H246.648V266.839C246.648 266.235 246.517 265.79 246.253 265.503C245.995 265.21 245.57 265.063 244.979 265.063C244.117 265.063 243.476 265.453 243.054 266.232V273H240.918V263.49H242.931Z" fill="#4D5971"/>
<path d="M124.608 227.918C193.428 227.918 249.217 224.661 249.217 220.643C249.217 216.625 193.428 213.368 124.608 213.368C55.7891 213.368 0 216.625 0 220.643C0 224.661 55.7891 227.918 124.608 227.918Z" fill="#F5F5F5"/>
<path d="M167.533 35.4498H166.864V39.6786H167.533V35.4498Z" fill="#407BFF"/>
<path d="M167.533 32.0114H166.89C166.887 29.5483 165.906 27.1872 164.164 25.4462C162.422 23.7052 160.06 22.7264 157.597 22.7247V22.082C160.228 22.0905 162.75 23.1391 164.611 24.9992C166.472 26.8593 167.523 29.38 167.533 32.0114Z" fill="#407BFF"/>
<path d="M157.571 24.3955H68.8691C64.6595 24.3955 61.2469 27.8081 61.2469 32.0176V212.931C61.2469 217.14 64.6595 220.553 68.8691 220.553H157.571C161.781 220.553 165.193 217.14 165.193 212.931V32.0176C165.193 27.8081 161.781 24.3955 157.571 24.3955Z" fill="#407BFF"/>
<path opacity="0.95" d="M161.736 212.931V32.0115C161.736 29.424 159.638 27.3264 157.051 27.3264L68.3485 27.3264C65.761 27.3264 63.6634 29.424 63.6634 32.0115L63.6634 212.931C63.6634 215.519 65.761 217.616 68.3485 217.616H157.051C159.638 217.616 161.736 215.519 161.736 212.931Z" fill="white"/>
<path d="M112.706 210.354C115.634 210.354 118.008 207.98 118.008 205.052C118.008 202.124 115.634 199.75 112.706 199.75C109.778 199.75 107.404 202.124 107.404 205.052C107.404 207.98 109.778 210.354 112.706 210.354Z" fill="#407BFF"/>
<path d="M108.651 26.793C108.651 27.9537 109.112 29.0669 109.933 29.8877C110.753 30.7085 111.867 31.1696 113.027 31.1696C114.188 31.1696 115.301 30.7085 116.122 29.8877C116.943 29.0669 117.404 27.9537 117.404 26.793H108.651Z" fill="#407BFF"/>
<path opacity="0.7" d="M141.646 45.7837H84.4475C82.1145 45.7905 79.8789 46.7203 78.2292 48.37C76.5795 50.0197 75.6497 52.2553 75.6429 54.5883V60.4624C75.6497 62.7954 76.5795 65.031 78.2292 66.6807C79.8789 68.3305 82.1145 69.2603 84.4475 69.267H141.646L150.45 74.4856V54.5626C150.435 52.2346 149.502 50.0066 147.853 48.3627C146.204 46.7189 143.974 45.7921 141.646 45.7837Z" fill="#407BFF"/>
<path d="M140.052 54.1964H86.0093V55.6617H140.052V54.1964Z" fill="white"/>
<path d="M140.052 59.3894H96.4078V60.8547H140.052V59.3894Z" fill="white"/>
<path opacity="0.15" d="M84.4154 84.8844H141.614C143.947 84.8912 146.182 85.821 147.832 87.4707C149.482 89.1204 150.411 91.356 150.418 93.6891V99.5567C150.411 101.89 149.482 104.125 147.832 105.775C146.182 107.425 143.947 108.355 141.614 108.361H84.4154L75.6108 113.58V93.6569C75.6243 91.3289 76.5573 89.1006 78.2065 87.4575C79.8557 85.8143 82.0874 84.8894 84.4154 84.8844Z" fill="#407BFF"/>
<path opacity="0.5" d="M140.052 93.2903H86.0093V94.7556H140.052V93.2903Z" fill="#407BFF"/>
<path opacity="0.5" d="M111.074 98.4897H86.0093V99.9551H111.074V98.4897Z" fill="#407BFF"/>
<path opacity="0.5" d="M125.18 98.4897H114.987V99.9551H125.18V98.4897Z" fill="#407BFF"/>
<path opacity="0.7" d="M141.646 123.978H84.4475C82.1145 123.985 79.8789 124.915 78.2292 126.564C76.5795 128.214 75.6497 130.45 75.6429 132.783V138.65C75.648 140.984 76.5772 143.221 78.2273 144.871C79.8774 146.521 82.114 147.45 84.4475 147.455H141.646L150.45 152.674V132.751C150.433 130.424 149.499 128.197 147.851 126.555C146.202 124.912 143.973 123.987 141.646 123.978Z" fill="#407BFF"/>
<path d="M140.052 132.384H86.0093V133.849H140.052V132.384Z" fill="white"/>
<path d="M140.052 137.584H96.4078V139.049H140.052V137.584Z" fill="white"/>
<path opacity="0.15" d="M84.4154 163.072H106.671C109.004 163.081 111.238 164.011 112.888 165.66C114.537 167.31 115.467 169.544 115.476 171.877V177.751C115.467 180.084 114.537 182.318 112.888 183.967C111.238 185.617 109.004 186.547 106.671 186.556H84.4154L75.6108 191.768V171.877C75.6176 169.544 76.5474 167.308 78.1971 165.659C79.8468 164.009 82.0824 163.079 84.4154 163.072Z" fill="#407BFF"/>
<path opacity="0.5" d="M88.8756 174.814C88.8756 175.322 88.7248 175.819 88.4424 176.242C88.1599 176.665 87.7584 176.994 87.2887 177.189C86.8189 177.383 86.3021 177.434 85.8034 177.335C85.3047 177.236 84.8467 176.991 84.4871 176.632C84.1276 176.272 83.8828 175.814 83.7836 175.315C83.6844 174.817 83.7353 174.3 83.9299 173.83C84.1245 173.36 84.4539 172.959 84.8767 172.676C85.2994 172.394 85.7965 172.243 86.3049 172.243C86.9841 172.251 87.6331 172.525 88.1134 173.005C88.5938 173.486 88.8673 174.135 88.8756 174.814Z" fill="#407BFF"/>
<path opacity="0.5" d="M94.0748 175.334C95.5123 175.334 96.6776 174.169 96.6776 172.731C96.6776 171.294 95.5123 170.129 94.0748 170.129C92.6373 170.129 91.472 171.294 91.472 172.731C91.472 174.169 92.6373 175.334 94.0748 175.334Z" fill="#407BFF"/>
<path opacity="0.5" d="M104.473 177.931C104.473 178.439 104.323 178.936 104.04 179.359C103.758 179.782 103.356 180.111 102.886 180.306C102.417 180.5 101.9 180.551 101.401 180.452C100.902 180.353 100.444 180.108 100.085 179.749C99.7253 179.389 99.4805 178.931 99.3813 178.432C99.2821 177.934 99.333 177.417 99.5276 176.947C99.7222 176.477 100.052 176.076 100.474 175.793C100.897 175.511 101.394 175.36 101.903 175.36C102.584 175.36 103.238 175.631 103.72 176.113C104.202 176.595 104.473 177.249 104.473 177.931Z" fill="#407BFF"/>
<path d="M179.451 168.561C180.158 169.968 180.788 171.382 181.45 172.796C182.112 174.21 182.735 175.649 183.327 177.089C183.918 178.528 184.535 179.974 185.1 181.446C185.666 182.918 186.238 184.39 186.758 185.945L184.458 183.779C185.799 184.237 187.205 184.48 188.622 184.499C190.266 184.543 191.912 184.468 193.545 184.274C195.242 184.094 196.951 183.811 198.687 183.49C200.422 183.169 202.157 182.77 203.828 182.378L205.351 186.08C203.679 186.999 201.949 187.809 200.171 188.503C198.391 189.217 196.569 189.822 194.715 190.315C192.787 190.835 190.817 191.179 188.828 191.343C186.609 191.559 184.369 191.376 182.215 190.804L180.704 190.386L179.882 188.618C178.648 185.913 177.311 183.136 176.026 180.366C175.383 178.978 174.708 177.584 174.066 176.189C173.423 174.794 172.78 173.393 172.138 171.992L179.451 168.561Z" fill="#FFC3BD"/>
<path d="M201.733 183.509L204.259 181.041L208.269 185.379C208.269 185.379 206.816 187.918 203.205 186.44L201.733 183.509Z" fill="#FFC3BD"/>
<path d="M208.07 179.409L210.28 183.014L208.275 185.379L204.265 181.041L208.07 179.409Z" fill="#FFC3BD"/>
<path d="M168.102 162.783C173.243 160.797 177.228 163.76 183.725 171.96L176.116 179.782C176.116 179.782 158.076 166.626 168.102 162.783Z" fill="#263238"/>
<path opacity="0.2" d="M177.755 171.266C175.325 169.692 173.211 170.135 171.424 171.6C172.099 174.1 173.828 176.967 175.492 179.313C175.884 179.621 176.135 179.788 176.135 179.788L180.377 175.424C180.266 174.583 179.974 173.776 179.522 173.058C179.069 172.34 178.466 171.729 177.755 171.266Z" fill="black"/>
<path d="M207.26 217.301L213.417 216.588L212.902 203.966L206.752 204.673L207.26 217.301Z" fill="#FFC3BD"/>
<path d="M213.468 213.933L206.534 214.03C206.421 214.035 206.314 214.081 206.233 214.159C206.151 214.237 206.101 214.342 206.09 214.454L205.306 219.91C205.283 220.039 205.288 220.171 205.32 220.298C205.353 220.425 205.412 220.543 205.495 220.645C205.577 220.747 205.68 220.83 205.797 220.888C205.914 220.947 206.043 220.979 206.174 220.983C208.327 220.913 209.316 220.752 212.035 220.707C213.712 220.707 218.764 220.803 221.077 220.771C223.391 220.739 223.545 218.201 222.588 217.976C218.288 217.012 215.814 215.63 214.381 214.293C214.136 214.057 213.808 213.928 213.468 213.933Z" fill="#263238"/>
<path d="M214.94 212.327C215.037 212.29 215.141 212.277 215.244 212.289C215.347 212.302 215.446 212.339 215.531 212.397C215.599 212.431 215.657 212.481 215.701 212.543C215.745 212.604 215.773 212.676 215.782 212.751C215.859 213.394 214.496 214.55 214.31 214.679C214.291 214.692 214.269 214.7 214.246 214.7C214.223 214.7 214.2 214.692 214.181 214.679C214.16 214.667 214.142 214.65 214.13 214.628C214.119 214.606 214.114 214.581 214.117 214.557C214.162 213.863 214.323 212.629 214.869 212.352L214.94 212.327ZM214.381 214.293C214.921 213.824 215.589 213.117 215.544 212.764C215.544 212.725 215.544 212.667 215.435 212.616C215.371 212.57 215.296 212.542 215.218 212.535C215.14 212.528 215.062 212.543 214.991 212.577C214.696 212.738 214.471 213.374 214.381 214.293Z" fill="#407BFF"/>
<path d="M214.876 214.062C215.103 213.942 215.352 213.869 215.608 213.847C215.864 213.825 216.122 213.854 216.367 213.933C216.45 213.986 216.515 214.065 216.551 214.157C216.587 214.25 216.592 214.352 216.566 214.447C216.553 214.538 216.518 214.624 216.466 214.699C216.413 214.773 216.344 214.835 216.264 214.878C215.621 215.232 214.259 214.705 214.201 214.685C214.181 214.676 214.163 214.663 214.148 214.646C214.134 214.629 214.123 214.61 214.117 214.589C214.113 214.568 214.114 214.546 214.121 214.526C214.128 214.506 214.14 214.487 214.156 214.473C214.37 214.296 214.614 214.156 214.876 214.062ZM216.071 214.705L216.142 214.672C216.192 214.643 216.235 214.603 216.269 214.556C216.302 214.508 216.324 214.453 216.334 214.396C216.334 214.242 216.302 214.184 216.251 214.158C215.942 213.959 214.998 214.216 214.49 214.544C214.992 214.743 215.539 214.799 216.071 214.705Z" fill="#407BFF"/>
<path opacity="0.2" d="M206.752 204.679L212.902 203.966L213.166 210.476L206.983 210.502L206.752 204.679Z" fill="black"/>
<path d="M176.566 197.352C176.566 197.352 192.543 182.494 202.915 182.269C210.486 182.108 215.897 207.147 215.897 207.147L206.9 207.32C206.9 207.32 205.319 198.464 199.439 196.022C190.942 208.773 156.309 233.972 159.593 206.652C164.734 204.717 176.566 197.352 176.566 197.352Z" fill="#407BFF"/>
<path opacity="0.2" d="M176.566 197.352C176.566 197.352 192.543 182.494 202.915 182.269C210.486 182.108 215.897 207.147 215.897 207.147L206.9 207.32C206.9 207.32 205.319 198.464 199.439 196.022C190.942 208.773 156.309 233.972 159.593 206.652C164.734 204.717 176.566 197.352 176.566 197.352Z" fill="black"/>
<path d="M215.865 208.387L205.287 209.403L205.319 205.547L216.508 204.216L215.865 208.387Z" fill="#263238"/>
<path d="M155.589 207.597C155.589 207.597 148.719 194.177 147.877 172.564C147.684 167.474 152.266 162.674 157.517 162.404C161.925 162.172 166.591 162.114 170.37 162.127C174.149 162.14 177.041 164.647 177.472 168.284C178.423 176.305 178.59 188.483 183.507 202.989L155.589 207.597Z" fill="#263238"/>
<path opacity="0.2" d="M151.096 172.674C154.882 168.4 156.186 169.762 156.752 170.276C161.996 175.026 154.297 189.814 152.754 191.992C151.671 186.469 151.026 180.869 150.826 175.244C150.787 174.379 150.878 173.512 151.096 172.674Z" fill="black"/>
<path d="M162.632 149.557C162.208 153.496 161.167 159.544 158.487 162.352C160.595 164.338 164.027 166.292 168.905 167.108C171.424 166.067 171.758 163.747 170.537 162.134C166.231 161.382 166.283 160.161 167.909 157.416L162.632 149.557Z" fill="#FFC3BD"/>
<path opacity="0.2" d="M164.785 152.763L167.909 157.41C167.495 158.049 167.172 158.744 166.951 159.473C165.422 158.83 163.738 156.491 164.072 154.769C164.189 154.063 164.43 153.384 164.785 152.763Z" fill="black"/>
<path d="M173.918 142.294C176.444 144.974 181.752 144.987 179.471 141.812C177.189 138.638 171.951 140.206 173.918 142.294Z" fill="#263238"/>
<path d="M163.68 142.005C162.273 147.147 161.193 150.026 162.793 153.573C163.279 154.73 164.074 155.731 165.091 156.466C166.108 157.202 167.308 157.643 168.559 157.742C169.81 157.841 171.064 157.593 172.184 157.027C173.303 156.461 174.246 155.597 174.907 154.531C177.478 150.469 179.368 142.789 175.248 138.888C174.395 138.017 173.325 137.388 172.148 137.067C170.971 136.746 169.73 136.744 168.552 137.061C167.374 137.378 166.302 138.004 165.446 138.873C164.589 139.742 163.98 140.823 163.68 142.005Z" fill="#FFC3BD"/>
<path d="M162.53 146.774C163.172 146.658 166.347 145.694 167.896 144.203C169.638 142.526 169.65 140.9 169.181 140.161C168.712 139.422 165.036 138.001 163.32 138.329C160.608 138.85 161.276 143.65 161.315 144.949C161.335 145.334 161.459 145.706 161.673 146.027C161.886 146.348 162.182 146.606 162.53 146.774Z" fill="#FFC3BD"/>
<path opacity="0.7" d="M162.53 146.774C163.172 146.658 166.347 145.694 167.896 144.203C169.638 142.526 169.65 140.9 169.181 140.161C168.712 139.422 165.036 138.001 163.32 138.329C160.608 138.85 161.276 143.65 161.315 144.949C161.335 145.334 161.459 145.706 161.673 146.027C161.886 146.348 162.182 146.606 162.53 146.774Z" fill="#263238"/>
<path d="M159.837 147.127C160.337 148.232 161.234 149.108 162.35 149.582C163.828 150.18 164.67 148.94 164.348 147.429C164.059 146.099 162.941 144.177 161.418 144.216C159.895 144.255 159.233 145.765 159.837 147.127Z" fill="#FFC3BD"/>
<path d="M164.67 139.865C171.225 141.266 175.884 144.955 178.982 142.738C181.174 141.17 179.734 138.31 177.221 136.24C175.075 134.473 172.08 133.927 171.18 132.481C171.075 132.962 171.116 133.463 171.297 133.921C171.477 134.378 171.79 134.772 172.195 135.052C172.195 135.052 166.276 134.139 164.638 132.597C164.246 133.516 165.762 135.289 165.762 135.289C165.762 135.289 164.091 136.877 159.336 135.084C159.618 136.62 160.942 139.068 164.67 139.865Z" fill="#263238"/>
<path d="M177.69 143.258H177.433V142.924C177.999 142.995 178.573 142.878 179.067 142.591C179.56 142.304 179.946 141.864 180.165 141.337C180.411 140.633 180.429 139.869 180.217 139.154C180.004 138.439 179.572 137.808 178.982 137.352C178.414 136.91 177.795 136.539 177.138 136.247C175.615 135.482 173.886 134.615 173.05 132.089L173.365 131.986C174.156 134.377 175.749 135.199 177.292 135.945C177.979 136.251 178.626 136.64 179.22 137.102C179.869 137.599 180.344 138.289 180.575 139.074C180.806 139.858 180.781 140.696 180.505 141.465C180.28 142.019 179.888 142.489 179.383 142.81C178.879 143.131 178.287 143.288 177.69 143.258Z" fill="#263238"/>
<path d="M171.109 146.999C170.968 147.404 171.071 147.821 171.328 147.924C171.585 148.027 171.913 147.783 172.054 147.378C172.195 146.973 172.093 146.555 171.836 146.452C171.578 146.35 171.244 146.581 171.109 146.999Z" fill="#263238"/>
<path d="M175.955 148.464C175.82 148.869 175.917 149.28 176.18 149.383C176.443 149.486 176.765 149.248 176.9 148.837C177.035 148.425 176.945 148.021 176.681 147.911C176.418 147.802 176.096 148.053 175.955 148.464Z" fill="#263238"/>
<path d="M174.175 147.969C174.225 149.409 174.467 150.835 174.895 152.211C173.956 152.596 172.857 151.812 172.857 151.812L174.175 147.969Z" fill="#ED847E"/>
<path d="M170.242 152.789C169.371 152.309 168.724 151.506 168.442 150.553C168.437 150.537 168.436 150.521 168.438 150.504C168.44 150.488 168.445 150.473 168.454 150.459C168.462 150.445 168.474 150.433 168.487 150.423C168.501 150.414 168.516 150.408 168.532 150.405C168.548 150.401 168.565 150.401 168.581 150.404C168.597 150.406 168.613 150.413 168.627 150.422C168.64 150.431 168.652 150.442 168.661 150.456C168.671 150.47 168.677 150.485 168.68 150.501C168.845 151.02 169.124 151.494 169.496 151.89C169.869 152.286 170.326 152.593 170.833 152.789C170.864 152.802 170.89 152.827 170.903 152.858C170.916 152.89 170.916 152.925 170.904 152.956C170.9 152.972 170.892 152.987 170.882 152.999C170.871 153.012 170.858 153.022 170.843 153.028C170.829 153.035 170.812 153.039 170.796 153.038C170.78 153.038 170.764 153.034 170.749 153.027C170.575 152.959 170.405 152.88 170.242 152.789Z" fill="#263238"/>
<path d="M169.792 144.338C169.752 144.317 169.719 144.286 169.695 144.248C169.659 144.193 169.646 144.125 169.659 144.06C169.672 143.995 169.711 143.938 169.766 143.901C170.092 143.68 170.468 143.544 170.859 143.505C171.251 143.466 171.646 143.525 172.009 143.676C172.04 143.69 172.068 143.71 172.091 143.735C172.114 143.759 172.132 143.788 172.144 143.82C172.156 143.851 172.162 143.885 172.16 143.919C172.159 143.953 172.152 143.986 172.138 144.017C172.125 144.046 172.107 144.073 172.084 144.095C172.06 144.118 172.033 144.135 172.003 144.147C171.973 144.158 171.941 144.163 171.909 144.162C171.877 144.161 171.845 144.153 171.816 144.139C171.526 144.027 171.214 143.986 170.905 144.021C170.596 144.056 170.3 144.164 170.042 144.338C170.004 144.36 169.961 144.372 169.917 144.372C169.873 144.372 169.83 144.36 169.792 144.338Z" fill="#263238"/>
<path d="M177.607 147.262C177.567 147.249 177.531 147.226 177.502 147.196C177.473 147.166 177.452 147.129 177.44 147.089C177.357 146.776 177.204 146.486 176.993 146.241C176.781 145.996 176.516 145.802 176.219 145.675C176.155 145.653 176.102 145.607 176.071 145.547C176.04 145.488 176.033 145.418 176.051 145.353C176.059 145.322 176.074 145.293 176.094 145.268C176.114 145.242 176.139 145.222 176.167 145.206C176.195 145.191 176.227 145.182 176.259 145.18C176.291 145.178 176.323 145.182 176.354 145.193C176.732 145.345 177.069 145.584 177.339 145.889C177.609 146.195 177.804 146.559 177.909 146.954C177.92 146.985 177.924 147.018 177.922 147.051C177.92 147.084 177.911 147.116 177.896 147.146C177.881 147.175 177.86 147.201 177.835 147.222C177.809 147.243 177.78 147.259 177.748 147.269C177.701 147.279 177.652 147.277 177.607 147.262Z" fill="#263238"/>
<path d="M228.616 220.302L232.279 214.975L222.414 206.382L218.751 211.71L228.616 220.302Z" fill="#FFC3BD"/>
<path d="M229.747 212.455L225.448 217.809C225.372 217.899 225.331 218.013 225.331 218.13C225.331 218.248 225.372 218.361 225.448 218.452L228.796 222.616C228.875 222.715 228.976 222.795 229.091 222.85C229.205 222.905 229.331 222.934 229.458 222.934C229.585 222.934 229.71 222.905 229.825 222.85C229.94 222.795 230.04 222.715 230.12 222.616C231.476 220.868 232.382 219.525 234.124 217.353C235.197 216.016 238.571 212.108 240.056 210.283C241.54 208.458 239.844 206.658 239.066 207.275C235.576 210.032 232.472 211.723 230.595 211.98C230.263 212.027 229.961 212.197 229.747 212.455Z" fill="#263238"/>
<path d="M229.464 210.257C229.495 210.158 229.549 210.067 229.62 209.992C229.691 209.916 229.778 209.857 229.876 209.82C229.943 209.785 230.018 209.767 230.094 209.767C230.17 209.767 230.245 209.785 230.313 209.82C230.897 210.161 230.955 211.947 230.955 212.153C230.954 212.177 230.947 212.2 230.933 212.219C230.919 212.239 230.9 212.254 230.878 212.262C230.858 212.275 230.835 212.282 230.811 212.282C230.787 212.282 230.764 212.275 230.743 212.262C230.216 211.813 229.342 210.977 229.458 210.334C229.456 210.309 229.459 210.283 229.464 210.257ZM230.705 211.883C230.653 211.163 230.493 210.212 230.184 210.032C230.154 210.018 230.121 210.01 230.088 210.01C230.054 210.01 230.021 210.018 229.991 210.032C229.918 210.058 229.852 210.102 229.8 210.161C229.748 210.219 229.712 210.29 229.696 210.367C229.651 210.701 230.011 211.26 230.705 211.883Z" fill="#407BFF"/>
<path d="M230.827 211.35C230.975 210.804 231.257 210.212 231.611 210.065C231.704 210.029 231.806 210.023 231.902 210.05C231.998 210.077 232.083 210.134 232.144 210.212C232.208 210.278 232.257 210.357 232.285 210.444C232.314 210.531 232.323 210.623 232.311 210.714C232.221 211.421 230.975 212.218 230.917 212.25C230.898 212.261 230.877 212.267 230.856 212.267C230.834 212.267 230.813 212.261 230.795 212.25C230.774 212.243 230.756 212.23 230.744 212.213C230.731 212.196 230.724 212.175 230.724 212.153C230.713 211.882 230.748 211.61 230.827 211.35ZM232.048 210.765C232.048 210.765 232.048 210.72 232.048 210.694C232.056 210.637 232.05 210.579 232.031 210.524C232.012 210.469 231.98 210.42 231.939 210.38C231.836 210.264 231.759 210.27 231.701 210.296C231.36 210.425 231 211.337 230.955 211.935C231.42 211.652 231.798 211.248 232.048 210.765Z" fill="#407BFF"/>
<path opacity="0.2" d="M218.751 211.71L222.414 206.382L227.504 210.81L223.301 215.675L218.751 211.71Z" fill="black"/>
<path d="M165.621 205.636C165.621 205.636 193.706 177.102 206.347 189.313C214.22 196.922 225.788 207.404 225.788 207.404L219.085 213.927C219.085 213.927 202.106 204.897 197.684 199.91C174.483 225.849 153.751 227.622 155.614 207.622C158.903 206.744 162.246 206.081 165.621 205.636Z" fill="#407BFF"/>
<path d="M227.787 207.462L220.422 216.716L217.298 214.621L224.824 204.794L227.787 207.462Z" fill="#263238"/>
<path d="M155.685 170.752L156.238 182.449C156.341 184.377 156.463 186.305 156.611 188.233C156.688 189.178 156.791 190.11 156.893 191.003C156.951 191.453 157.009 191.89 157.08 192.288C157.15 192.687 157.228 193.06 157.279 193.284C157.282 193.319 157.282 193.353 157.279 193.387C157.173 193.196 157.023 193.033 156.842 192.912C156.737 192.836 156.62 192.779 156.495 192.745C156.424 192.745 156.386 192.745 156.418 192.745C156.944 192.826 157.481 192.791 157.992 192.642C159.692 192.218 161.348 191.63 162.935 190.887C164.65 190.135 166.36 189.268 168.076 188.368C169.792 187.468 171.508 186.511 173.172 185.579L175.576 188.792C172.563 191.596 169.29 194.108 165.801 196.292C164.908 196.838 163.982 197.365 163.005 197.86C161.985 198.387 160.926 198.834 159.837 199.197C159.217 199.402 158.584 199.561 157.941 199.673C157.151 199.82 156.344 199.859 155.544 199.788C155.026 199.74 154.517 199.628 154.027 199.454C153.437 199.246 152.882 198.949 152.382 198.574C151.861 198.169 151.411 197.681 151.051 197.128C150.887 196.875 150.741 196.611 150.614 196.337L150.37 195.746C150.144 195.134 149.953 194.509 149.798 193.876C149.657 193.304 149.541 192.77 149.438 192.237C149.226 191.176 149.066 190.142 148.924 189.12C148.629 187.076 148.416 185.058 148.237 183.047C147.877 179.023 147.665 175.045 147.594 171.003L155.685 170.752Z" fill="#FFC3BD"/>
<path d="M153.712 163.213C150.685 163.554 146.154 166.427 146 179.782L158.982 178.76C158.982 178.76 165.1 161.909 153.712 163.213Z" fill="#263238"/>
<path d="M184.091 178.811L179.271 179.126C178.987 179.166 178.721 179.29 178.508 179.482C178.294 179.675 178.144 179.927 178.076 180.206L175.82 190.797C175.782 190.912 175.773 191.035 175.795 191.155C175.816 191.274 175.867 191.387 175.943 191.481C176.019 191.576 176.118 191.65 176.23 191.696C176.342 191.743 176.464 191.761 176.585 191.748L181.405 191.433C181.69 191.396 181.957 191.272 182.171 191.079C182.384 190.887 182.534 190.634 182.6 190.354L184.856 179.762C184.894 179.647 184.903 179.524 184.882 179.405C184.86 179.285 184.809 179.173 184.733 179.079C184.657 178.984 184.558 178.91 184.446 178.863C184.334 178.817 184.212 178.799 184.091 178.811Z" fill="#407BFF"/>
<path d="M173.564 185.328L177.555 183.94L176.572 190.193C176.572 190.193 172.125 191.17 171.758 188.779L172.401 186.652C172.482 186.358 172.629 186.085 172.831 185.856C173.032 185.627 173.283 185.446 173.564 185.328Z" fill="#FFC3BD"/>
<path d="M182.118 184.467L180.39 190.032L176.572 190.193L177.555 183.94L182.118 184.467Z" fill="#FFC3BD"/>
<path d="M48.0944 53.393C44.9582 46.1115 62.0598 38.4894 66.8927 49.8262C75.0996 53.393 64.6112 68.5602 66.9827 71.1309C69.3541 73.7016 71.1408 70.5846 71.1408 70.5846C71.1408 70.5846 73.5379 76.9728 67.4261 82.0885C61.9505 86.6836 45.4787 87.9304 45.4402 78.8751C45.3888 67.1013 52.2075 62.9368 48.0944 53.393Z" fill="#263238"/>
<path d="M63.8207 206.26L59.2191 208.94L48.1715 196.311L53.9042 191.138L63.8207 206.26Z" fill="#FFC3BD"/>
<path d="M58.6921 207.783L63.4415 204.139C63.5158 204.073 63.6119 204.036 63.7114 204.036C63.811 204.036 63.9071 204.073 63.9814 204.139L67.1305 207.25C67.2075 207.337 67.2651 207.439 67.2997 207.55C67.3342 207.661 67.3448 207.778 67.3309 207.893C67.3169 208.009 67.2786 208.12 67.2186 208.219C67.1586 208.319 67.0782 208.404 66.9827 208.471C65.3117 209.711 64.4441 210.232 62.3554 211.838C61.0701 212.822 58.4994 214.981 56.7384 216.337C54.9775 217.693 53.6407 216.131 54.2641 215.418C57.079 212.205 57.6896 210.277 58.1202 208.561C58.2175 208.244 58.4191 207.97 58.6921 207.783Z" fill="#263238"/>
<path d="M57.6253 209.685C57.2948 209.993 56.8729 210.185 56.4235 210.232C56.3164 210.227 56.212 210.196 56.12 210.141C56.0279 210.086 55.9511 210.009 55.8965 209.917C55.865 209.858 55.8485 209.793 55.8485 209.727C55.8485 209.661 55.865 209.596 55.8965 209.537C56.2178 208.895 58.5058 208.387 58.7628 208.329C58.7876 208.325 58.8129 208.329 58.8357 208.339C58.8586 208.349 58.8779 208.366 58.8914 208.387C58.9038 208.409 58.9103 208.433 58.9103 208.458C58.9103 208.483 58.9038 208.507 58.8914 208.528C58.5055 208.952 58.0817 209.339 57.6253 209.685ZM56.2628 209.448C56.1956 209.494 56.1405 209.555 56.1022 209.627C56.0878 209.649 56.0801 209.675 56.0801 209.701C56.0801 209.728 56.0878 209.753 56.1022 209.775C56.1356 209.837 56.1846 209.889 56.2443 209.926C56.3041 209.964 56.3725 209.985 56.4428 209.987C56.8605 209.987 57.5867 209.512 58.4094 208.651C57.655 208.797 56.9298 209.066 56.2628 209.448Z" fill="#407BFF"/>
<path d="M58.8335 208.541H58.7821C58.1394 208.715 56.4878 208.625 56.2114 208.117C56.1536 208.001 56.1343 207.802 56.3914 207.564C56.5746 207.394 56.8159 207.3 57.0662 207.301C57.9081 207.301 58.8078 208.297 58.84 208.342C58.8508 208.359 58.8565 208.379 58.8565 208.4C58.8565 208.42 58.8508 208.44 58.84 208.458C58.8463 208.485 58.8441 208.515 58.8335 208.541ZM56.6227 207.712L56.5649 207.764C56.3978 207.918 56.4364 207.995 56.4492 208.021C56.6035 208.329 57.7796 208.477 58.5122 208.374C58.1287 207.955 57.6186 207.673 57.0598 207.571C56.9023 207.567 56.7484 207.617 56.6227 207.712Z" fill="#407BFF"/>
<path d="M47.0918 79.7942C46.7898 81.176 46.4491 82.4228 46.0635 83.7145C45.6779 85.0063 45.2795 86.2852 44.8167 87.5192C43.9276 90.0547 42.8845 92.5336 41.6933 94.9421L40.7486 96.7416C40.408 97.3328 40.1059 97.9241 39.7203 98.5089L39.1676 99.3765C38.9748 99.6722 38.827 99.9357 38.5635 100.283C38.435 100.45 38.3064 100.617 38.1329 100.816C37.9146 101.073 37.669 101.306 37.4003 101.51C37.0754 101.759 36.7004 101.934 36.3013 102.024C36.1156 102.066 35.926 102.088 35.7357 102.089C35.503 102.091 35.2712 102.059 35.0481 101.992C34.6311 101.88 34.2518 101.658 33.9491 101.35C33.6457 101.046 33.4246 100.67 33.3064 100.257C33.2468 100.066 33.2059 99.8706 33.1843 99.6722C33.134 99.2087 33.134 98.7411 33.1843 98.2776C33.2293 97.892 33.2936 97.5321 33.3578 97.185C33.4864 96.4845 33.6535 95.829 33.827 95.1734C34.1878 93.8834 34.6169 92.6134 35.1123 91.3688L37.683 91.9344L37.5095 95.7904C37.5095 96.4331 37.471 97.0372 37.4645 97.6285C37.4645 97.9241 37.4645 98.2133 37.4645 98.4704C37.4633 98.6553 37.4893 98.8393 37.5417 99.0167C37.5417 99.0167 37.5417 99.0166 37.5417 98.901C37.4623 98.6579 37.3256 98.4374 37.1432 98.2583C36.8941 98.0047 36.5844 97.8189 36.2435 97.7184C36.0588 97.6687 35.869 97.6406 35.6779 97.6349C35.5266 97.6375 35.376 97.6547 35.228 97.6863C34.9979 97.7424 34.78 97.8404 34.5854 97.9755C34.4504 98.0719 34.5018 98.0205 34.5275 97.9755L34.6753 97.7249L35.5365 96.1824C35.8257 95.6426 36.0892 95.0899 36.372 94.5436L37.1625 92.8727C38.1651 90.604 39.0905 88.2711 39.8617 85.8932C40.2602 84.7043 40.6265 83.5025 40.9928 82.3006C41.3592 81.0988 41.6869 79.8585 41.9761 78.7209L47.0918 79.7942Z" fill="#FFC3BD"/>
<path d="M44.8939 73.1038C43.0301 73.4059 40.0738 85.2504 40.0738 85.2504L44.3733 88.5602C44.3733 88.5602 48.6856 79.9997 48.872 76.1501C49.0006 73.3609 46.3013 72.8789 44.8939 73.1038Z" fill="#FFC3BD"/>
<path d="M38.1523 92.506L37.4261 86.6191L34.052 91.5677C34.1956 92.1642 34.5097 92.706 34.9559 93.1271C35.4021 93.5481 35.9611 93.8303 36.5649 93.9392L38.1523 92.506Z" fill="#FFC3BD"/>
<path d="M61.732 216.253L56.5906 216.427L55.6073 198.483L62.741 198.586L61.732 216.253Z" fill="#FFC3BD"/>
<path d="M56.2435 214.788L62.0276 214.75C62.1243 214.746 62.2187 214.78 62.2907 214.845C62.3626 214.91 62.4066 215 62.4132 215.097L62.7602 219.653C62.7637 219.892 62.6724 220.123 62.5062 220.295C62.3401 220.468 62.1126 220.567 61.8733 220.572C59.8682 220.572 58.9042 220.437 56.372 220.456C54.8103 220.456 52.516 220.643 50.3694 220.662C48.2229 220.681 48.2422 218.548 49.1548 218.348C53.2358 217.455 53.9492 216.26 55.3823 215.135C55.6242 214.929 55.9264 214.807 56.2435 214.788Z" fill="#263238"/>
<path d="M44.579 73.0652C44.579 73.0652 42.0083 73.7079 42.0083 104.126L62.6318 105.951C63.6665 97.4741 64.5019 92.262 71.3336 75.2825C68.5308 74.4243 65.6669 73.7798 62.7667 73.3544C59.6719 72.8512 56.5445 72.5741 53.4094 72.5254C49.2962 72.5318 44.579 73.0652 44.579 73.0652Z" fill="#407BFF"/>
<path opacity="0.2" d="M67.2397 79.1641L68.3387 82.9109C67.4775 85.2309 66.7642 87.2811 66.1665 89.1255C65.711 85.7671 66.0793 82.3484 67.2397 79.1641Z" fill="black"/>
<path d="M37.426 86.6191L34.052 91.5677L38.1523 91.33L40.3374 86.8055L37.426 86.6191Z" fill="#FFC3BD"/>
<path d="M39.5661 98.0011L43.4222 97.9433C43.5492 97.9408 43.6742 97.9115 43.7891 97.8572C43.9039 97.803 44.006 97.725 44.0886 97.6285C44.1711 97.532 44.2323 97.4191 44.2681 97.2972C44.3039 97.1753 44.3135 97.0472 44.2962 96.9214L43.0944 88.2774C43.0659 88.0605 42.9583 87.8618 42.7922 87.7195C42.6262 87.5771 42.4133 87.5012 42.1947 87.5062L38.3386 87.5641C38.2116 87.5646 38.0861 87.5923 37.9708 87.6455C37.8554 87.6987 37.7528 87.7761 37.6699 87.8724C37.587 87.9686 37.5258 88.0816 37.4904 88.2036C37.455 88.3256 37.4462 88.4538 37.4646 88.5795L38.6664 97.2234C38.6947 97.4409 38.8021 97.6403 38.968 97.7837C39.134 97.9271 39.3468 98.0045 39.5661 98.0011Z" fill="#263238"/>
<path d="M63.5379 62.6539C62.4518 65.6359 60.9672 71.1372 62.7346 73.348C59.6603 75.9182 56.2152 78.0091 52.516 79.5498C50.3631 74.5241 53.3772 72.519 53.3772 72.519C56.867 72.0113 57.1883 69.492 56.9826 67.082L63.5379 62.6539Z" fill="#FFC3BD"/>
<path d="M49.4119 59.2346C48.872 68.1614 43.5057 70.7192 44.7654 75.3015C46.5456 81.7283 53.8078 76.6961 53.8078 76.6961C53.8078 76.6961 49.8553 77.9815 49.6047 74.8581C49.399 72.2874 58.525 72.6858 55.9929 66.6382C54.3669 62.7436 49.4119 59.2346 49.4119 59.2346Z" fill="#263238"/>
<path opacity="0.2" d="M61.6677 64.9095L56.989 67.0818C57.0404 67.6462 57.0404 68.2141 56.989 68.7785C57.9659 68.8684 60.498 68.1358 61.4556 66.5548C61.7209 66.0494 61.7962 65.4657 61.6677 64.9095Z" fill="black"/>
<path d="M64.3477 54.2606C64.8168 59.3248 65.1253 61.4649 62.9852 64.4341C59.7718 68.9007 53.4415 68.3737 51.4685 63.5408C49.6883 59.1963 49.2191 51.6384 53.8271 48.8814C54.8395 48.2668 55.9923 47.9215 57.1758 47.8783C58.3594 47.8351 59.5343 48.0954 60.5887 48.6346C61.6432 49.1738 62.5422 49.9738 63.2002 50.9585C63.8581 51.9433 64.2531 53.08 64.3477 54.2606Z" fill="#FFC3BD"/>
<path d="M63.2294 49.1769C59.2319 46.4327 55.9093 51.7027 63.0045 56.8248C70.0996 61.9469 67.7731 52.2939 63.2294 49.1769Z" fill="#263238"/>
<path d="M61.1022 47.7052C62.7538 49.1898 52.9209 54.6653 47.5739 52.8466C42.2268 51.0278 46.5199 46.9468 48.4672 46.4198C46.7962 48.0329 49.7204 50.4815 51.1343 48.952C52.5482 47.4224 57.786 44.7296 61.1022 47.7052Z" fill="#263238"/>
<path d="M41.9826 104.126C41.9826 104.126 31.1021 150.199 32.0597 161.832C33.1715 175.431 48.043 197.352 48.043 197.352L54.8747 191.151C54.8747 191.151 48.0944 173.194 43.0752 161.497C44.6818 149.801 58.885 116.754 58.885 105.623L41.9826 104.126Z" fill="#407BFF"/>
<path opacity="0.6" d="M41.9826 104.126C41.9826 104.126 31.1021 150.199 32.0597 161.832C33.1715 175.431 48.043 197.352 48.043 197.352L54.8747 191.151C54.8747 191.151 48.0944 173.194 43.0752 161.497C44.6818 149.801 58.885 116.754 58.885 105.623L41.9826 104.126Z" fill="black"/>
<path d="M56.1343 192.076L48.0623 198.091L45.9929 196.517L54.8489 189.531L56.1343 192.076Z" fill="#407BFF"/>
<path opacity="0.2" d="M50.0353 124.389C44.0391 132.693 43.7499 147.963 44.1227 156.523C46.1793 148.644 50.4916 136.876 53.9299 126.272C53.8464 122.211 52.8374 120.501 50.0353 124.389Z" fill="black"/>
<path d="M45.8515 104.164C45.8515 104.164 49.8361 143.952 51.1664 157.384C52.7474 173.329 55.0675 198.901 55.0675 198.901L62.741 198.58C62.741 198.58 64.4248 176.902 63.178 162.59C63.403 143.631 66.1986 117.853 62.5996 105.925L45.8515 104.164Z" fill="#407BFF"/>
<path opacity="0.6" d="M45.8515 104.164C45.8515 104.164 49.8361 143.952 51.1664 157.384C52.7474 173.329 55.0675 198.901 55.0675 198.901L62.741 198.58C62.741 198.58 64.4248 176.902 63.178 162.59C63.403 143.631 66.1986 117.853 62.5996 105.925L45.8515 104.164Z" fill="black"/>
<path d="M63.3258 199.987L54.5211 199.736L53.9042 196.967L63.8656 196.69L63.3258 199.987Z" fill="#407BFF"/>
<path d="M56.4685 57.0562C56.5327 57.461 56.3656 57.8274 56.0957 57.8724C55.8258 57.9173 55.5623 57.6153 55.498 57.2297C55.4337 56.8441 55.6008 56.4585 55.8708 56.4135C56.1407 56.3685 56.4042 56.6448 56.4685 57.0562Z" fill="#263238"/>
<path d="M51.8477 57.7697C51.9119 58.181 51.7448 58.5473 51.4749 58.5859C51.205 58.6244 50.9415 58.3288 50.8772 57.9432C50.813 57.5576 50.98 57.1656 51.25 57.127C51.5199 57.0884 51.7834 57.3648 51.8477 57.7697Z" fill="#263238"/>
<path d="M51.3657 57.1077L50.3438 56.9791C50.3438 56.9791 50.9672 57.6668 51.3657 57.1077Z" fill="#263238"/>
<path d="M53.3643 58.1746C53.1428 59.1626 52.7882 60.116 52.3104 61.0088C52.5417 61.1246 52.7955 61.1887 53.0541 61.1964C53.3127 61.2042 53.5699 61.1555 53.8078 61.0537L53.3643 58.1746Z" fill="#ED847E"/>
<path d="M56.4685 62.1784C56.2599 62.2524 56.0447 62.3062 55.8258 62.339C55.7943 62.3447 55.7618 62.3378 55.7354 62.3198C55.709 62.3017 55.6907 62.274 55.6844 62.2426C55.6817 62.2266 55.6822 62.2101 55.6859 62.1943C55.6896 62.1784 55.6965 62.1635 55.706 62.1503C55.7156 62.1371 55.7277 62.126 55.7417 62.1176C55.7556 62.1091 55.7711 62.1036 55.7872 62.1013C56.2981 62.0351 56.7859 61.8485 57.2105 61.5568C57.635 61.2652 57.9843 60.8769 58.2294 60.4239C58.2445 60.3962 58.2691 60.3751 58.2988 60.3644C58.3284 60.3537 58.3609 60.3543 58.3901 60.366C58.4049 60.3723 58.4183 60.3815 58.4295 60.393C58.4408 60.4045 58.4496 60.4181 58.4556 60.433C58.4616 60.4479 58.4645 60.4639 58.4643 60.48C58.4641 60.4961 58.4607 60.5119 58.4544 60.5267C58.0333 61.3153 57.3206 61.908 56.4685 62.1784Z" fill="#263238"/>
<path d="M65.7551 57.718C65.7206 58.21 65.5893 58.6903 65.3687 59.1315C65.1482 59.5726 64.8427 59.9659 64.4698 60.2887C63.4801 61.137 62.4325 60.3915 62.2461 59.164C62.0726 58.065 62.3875 56.2977 63.6022 55.9506C63.8658 55.8696 64.1454 55.8552 64.4161 55.9085C64.6867 55.9619 64.9399 56.0814 65.1531 56.2564C65.3663 56.4314 65.5328 56.6565 65.6379 56.9115C65.7429 57.1665 65.7832 57.4436 65.7551 57.718Z" fill="#FFC3BD"/>
<path d="M58.57 54.524C58.538 54.5303 58.5049 54.5302 58.4729 54.5236C58.4409 54.517 58.4106 54.504 58.3837 54.4854C58.1381 54.303 57.8527 54.1817 57.5509 54.1314C57.2492 54.0811 56.9399 54.1033 56.6484 54.1962C56.619 54.2086 56.5873 54.215 56.5553 54.2149C56.5233 54.2148 56.4917 54.2083 56.4623 54.1957C56.4329 54.1831 56.4063 54.1647 56.3842 54.1416C56.3621 54.1185 56.3448 54.0912 56.3335 54.0612C56.3102 54.0015 56.3113 53.9351 56.3365 53.8761C56.3618 53.8172 56.4092 53.7706 56.4685 53.7463C56.8341 53.6219 57.2245 53.5878 57.6061 53.6471C57.9878 53.7065 58.3494 53.8574 58.66 54.0869C58.7121 54.1233 58.7479 54.1786 58.7599 54.241C58.7719 54.3034 58.7591 54.368 58.7243 54.4211C58.6862 54.4722 58.6317 54.5085 58.57 54.524Z" fill="#263238"/>
<path d="M49.8425 55.9959C49.8143 56.0087 49.7836 56.0153 49.7526 56.0153C49.7215 56.0153 49.6909 56.0087 49.6626 55.9959C49.6335 55.9828 49.6074 55.964 49.5858 55.9406C49.5642 55.9172 49.5475 55.8897 49.5367 55.8597C49.5259 55.8297 49.5213 55.7979 49.523 55.7661C49.5248 55.7343 49.5329 55.7032 49.5469 55.6745C49.6991 55.3202 49.9346 55.0078 50.2333 54.7639C50.532 54.52 50.8852 54.3518 51.2628 54.2735C51.3244 54.269 51.3854 54.2879 51.4335 54.3265C51.4817 54.3651 51.5134 54.4205 51.5224 54.4816C51.5313 54.5427 51.5168 54.6049 51.4818 54.6557C51.4468 54.7065 51.3938 54.7422 51.3335 54.7555C51.0356 54.8227 50.7578 54.9597 50.5232 55.1552C50.2885 55.3507 50.1037 55.5992 49.9839 55.8802C49.9694 55.9081 49.9494 55.9327 49.9251 55.9526C49.9008 55.9725 49.8727 55.9872 49.8425 55.9959Z" fill="#263238"/>
<path d="M72.6896 81.4524C72.786 82.3843 72.8375 83.2005 72.8632 84.0681C72.8889 84.9357 72.9082 85.7712 72.9017 86.6388C72.876 88.3526 72.7668 90.0664 72.574 91.7802C72.3769 93.515 72.0548 95.2333 71.61 96.9216C71.3805 97.7937 71.1016 98.652 70.7745 99.4923C70.6138 99.9165 70.4339 100.341 70.2475 100.778C70.2475 100.778 70.1511 100.983 70.0868 101.099C70.019 101.232 69.9394 101.359 69.849 101.478C69.6902 101.713 69.5048 101.929 69.2963 102.121C68.9581 102.41 68.5792 102.649 68.1716 102.828C67.5895 103.071 66.9744 103.227 66.3464 103.291C65.845 103.346 65.3405 103.367 64.8362 103.355C63.9282 103.33 63.0225 103.251 62.1241 103.117C60.4406 102.851 58.7735 102.49 57.1305 102.037C55.5174 101.594 53.9171 101.105 52.3554 100.585C50.7937 100.064 49.2384 99.4859 47.6896 98.8368L48.4929 96.3689C50.0546 96.7095 51.642 97.0694 53.223 97.3715C54.804 97.6735 56.3786 98.0141 57.9467 98.2455C59.5148 98.4769 61.0829 98.7147 62.5996 98.8111C63.3244 98.8683 64.052 98.8812 64.7783 98.8496C65.0887 98.8348 65.3978 98.8005 65.7038 98.7468C65.8889 98.7179 66.0687 98.6615 66.2372 98.5797C66.2372 98.5797 66.2372 98.5797 66.1408 98.6311C66.0816 98.6766 66.0296 98.7308 65.9865 98.7918L65.9094 98.9075C65.9094 98.9075 65.8516 99.036 65.9094 98.9524C66.0315 98.6183 66.1536 98.3098 66.2565 97.937C66.475 97.2429 66.6549 96.5296 66.8156 95.8033C67.1165 94.3174 67.3311 92.8153 67.4583 91.3046C67.5997 89.775 67.6446 88.2198 67.6446 86.6645C67.6446 85.8869 67.6446 85.1092 67.6446 84.3316C67.6446 83.5539 67.574 82.7506 67.529 82.0565L72.6896 81.4524Z" fill="#FFC3BD"/>
<path d="M71.2822 75.2824C73.4994 76.7284 72.7475 89.3313 72.7475 89.3313L67.529 90.3788C67.529 90.3788 67.484 83.9521 66.9248 79.7811C66.5457 76.9469 69.7012 74.2477 71.2822 75.2824Z" fill="#FFC3BD"/>
<path d="M53.4158 215.386C53.3531 215.302 53.3106 215.205 53.2917 215.103C53.2727 215 53.2778 214.895 53.3066 214.794C53.3185 214.72 53.3489 214.65 53.3949 214.591C53.4409 214.531 53.5011 214.484 53.57 214.454C54.2127 214.177 55.678 215.174 55.8451 215.283C55.864 215.296 55.8784 215.315 55.8864 215.337C55.8944 215.359 55.8957 215.382 55.8901 215.405C55.8844 215.429 55.8726 215.451 55.8556 215.469C55.8387 215.487 55.8174 215.501 55.7937 215.508C55.1189 215.668 53.9171 215.874 53.4672 215.437L53.4158 215.386ZM55.4595 215.334C54.8168 214.955 53.9814 214.524 53.6536 214.692C53.6237 214.706 53.5979 214.727 53.5788 214.754C53.5596 214.781 53.5478 214.813 53.5443 214.846C53.5208 214.92 53.5173 214.998 53.5342 215.074C53.5512 215.15 53.5879 215.22 53.6407 215.276C53.885 215.495 54.5533 215.521 55.4595 215.347V215.334Z" fill="#407BFF"/>
<path d="M55.0996 214.93C54.9177 214.747 54.7735 214.531 54.6754 214.292C54.5773 214.054 54.527 213.799 54.5276 213.541C54.5557 213.446 54.613 213.362 54.6914 213.301C54.7698 213.24 54.8653 213.205 54.9646 213.201C55.0544 213.187 55.1462 213.193 55.2331 213.22C55.3199 213.247 55.3996 213.293 55.4659 213.355C55.9865 213.843 55.8965 215.322 55.8901 215.386C55.8891 215.408 55.8828 215.43 55.8716 215.449C55.8603 215.468 55.8446 215.484 55.8258 215.495C55.8069 215.505 55.786 215.51 55.7647 215.51C55.7435 215.51 55.7226 215.505 55.7037 215.495C55.4739 215.34 55.27 215.149 55.0996 214.93ZM55.3438 213.593C55.3283 213.574 55.3111 213.557 55.2924 213.541C55.2511 213.502 55.2013 213.472 55.1467 213.454C55.0922 213.436 55.0343 213.431 54.9775 213.439C54.8168 213.439 54.7847 213.529 54.7654 213.586C54.669 213.94 55.196 214.769 55.6587 215.155C55.7013 214.615 55.5922 214.074 55.3438 213.593Z" fill="#407BFF"/>
<path d="M63.1073 104.756L63.3322 106.684C63.3837 106.832 63.1909 106.967 62.9531 106.941L41.7448 105.064C41.5584 105.064 41.417 104.942 41.4234 104.826L41.5455 102.95C41.5455 102.821 41.7319 102.725 41.9311 102.744L62.8117 104.595C62.8706 104.594 62.9289 104.608 62.9807 104.636C63.0325 104.665 63.0762 104.706 63.1073 104.756Z" fill="white"/>
<path d="M59.9197 106.863L60.4788 106.908C60.5945 106.908 60.6845 106.87 60.6909 106.799L60.8194 104.363C60.8194 104.293 60.7359 104.222 60.6266 104.216L60.0611 104.164C59.9518 104.164 59.8554 104.203 59.849 104.273L59.7205 106.716C59.7205 106.786 59.8104 106.851 59.9197 106.863Z" fill="#407BFF"/>
<path opacity="0.6" d="M59.9197 106.863L60.4788 106.908C60.5945 106.908 60.6845 106.87 60.6909 106.799L60.8194 104.363C60.8194 104.293 60.7359 104.222 60.6266 104.216L60.0611 104.164C59.9518 104.164 59.8554 104.203 59.849 104.273L59.7205 106.716C59.7205 106.786 59.8104 106.851 59.9197 106.863Z" fill="black"/>
<path d="M43.2679 105.385L43.827 105.437C43.9427 105.437 44.0327 105.398 44.0391 105.328L44.1677 102.885C44.1677 102.815 44.0841 102.75 43.9749 102.738L43.4157 102.693C43.3 102.693 43.2101 102.731 43.2036 102.802L43.0751 105.238C43.0687 105.308 43.1586 105.379 43.2679 105.385Z" fill="#407BFF"/>
<path opacity="0.6" d="M43.2679 105.385L43.827 105.437C43.9427 105.437 44.0327 105.398 44.0391 105.328L44.1677 102.885C44.1677 102.815 44.0841 102.75 43.9749 102.738L43.4157 102.693C43.3 102.693 43.2101 102.731 43.2036 102.802L43.0751 105.238C43.0687 105.308 43.1586 105.379 43.2679 105.385Z" fill="black"/>
<path d="M51.597 106.124L52.1561 106.176C52.2654 106.176 52.3618 106.131 52.3618 106.06L52.4967 103.624C52.4967 103.554 52.4132 103.489 52.2975 103.477L51.7384 103.425C51.6291 103.425 51.5327 103.47 51.5327 103.541L51.3978 105.977C51.3978 106.047 51.4877 106.092 51.597 106.124Z" fill="#407BFF"/>
<path opacity="0.6" d="M51.597 106.124L52.1561 106.176C52.2654 106.176 52.3618 106.131 52.3618 106.06L52.4967 103.624C52.4967 103.554 52.4132 103.489 52.2975 103.477L51.7384 103.425C51.6291 103.425 51.5327 103.47 51.5327 103.541L51.3978 105.977C51.3978 106.047 51.4877 106.092 51.597 106.124Z" fill="black"/>
<path d="M49.2962 96.523L46.0828 92.2363L44.746 97.3777C44.746 97.3777 47.1368 99.4664 49.1676 98.6631L49.2962 96.523Z" fill="#FFC3BD"/>
<path d="M41.9697 91.2914L41.0764 95.6295L45.4145 97.8467L46.1021 92.2361L41.9697 91.2914Z" fill="#FFC3BD"/>
<path d="M55.9929 56.3942L54.9647 56.2656C54.9647 56.2656 55.5623 56.9533 55.9929 56.3942Z" fill="#263238"/>
</svg>
